<svg width="50" height="50" viewBox="0 0 50 50" fill="none" xmlns="http://www.w3.org/2000/svg">
<circle cx="25" cy="25" r="25" fill="#B02A30"/>
<path d="M26.6146 13.0701L28.6556 11.2023C28.8202 11.0516 28.8315 10.7961 28.6808 10.6314C28.5303 10.4666 28.2746 10.4553 28.1099 10.606L25.3499 13.1318C25.2701 13.2048 25.2229 13.3069 25.2187 13.4151C25.2148 13.5234 25.2544 13.6285 25.3286 13.7073L27.9035 16.437C28.0567 16.5995 28.3126 16.6069 28.4748 16.4537C28.6371 16.3005 28.6447 16.0448 28.4915 15.8824L26.602 13.8797C32.8263 14.3166 37.7784 19.4964 37.8244 25.8379C37.8726 32.4965 32.4943 37.9533 25.8356 38.0013C25.8059 38.0015 25.7764 38.0017 25.7467 38.0017C19.1282 38.0017 13.72 32.6421 13.6719 26.013C13.6571 24.0354 14.1282 22.0845 15.0441 20.3313C15.96 18.5786 17.2924 17.0777 18.9241 15.9604C19.1076 15.8338 19.154 15.5829 19.0278 15.3989C18.9018 15.2152 18.6507 15.1684 18.4668 15.294C16.1969 16.8488 14.4843 19.0894 13.5798 21.6882C12.675 24.2866 12.626 27.1064 13.4393 29.7345C14.2529 32.363 15.8863 34.662 18.1008 36.295C20.315 37.928 22.994 38.8095 25.7454 38.8101C25.7774 38.8101 25.8094 38.8101 25.8413 38.8096C28.3898 38.7913 30.8754 38.0177 32.984 36.5866C35.0927 35.1554 36.7294 33.1313 37.6875 30.7698C38.6456 28.4086 38.8822 25.8159 38.3669 23.3204C37.8516 20.8249 36.6079 18.538 34.7929 16.7489C32.6003 14.5754 29.6955 13.2688 26.6145 13.0699L26.6146 13.0701Z" fill="#F18121" stroke="#F18121" stroke-width="0.3"/>
<path d="M22.3268 28.7489C22.4633 28.9254 22.7171 28.9578 22.8936 28.8211L29.0999 24.0165C29.1857 23.9512 29.2416 23.8545 29.2556 23.7477C29.2696 23.6409 29.2403 23.533 29.1746 23.4479C29.1086 23.3627 29.0115 23.3073 28.9045 23.2941C28.7977 23.2809 28.6898 23.311 28.6053 23.3774L22.399 28.1819C22.2225 28.3186 22.1901 28.5724 22.3268 28.7489L22.3268 28.7489Z" fill="#F18121" stroke="#F18121" stroke-width="0.3"/>
<path d="M23.634 25.4777C24.115 25.539 24.6006 25.4068 24.9839 25.1101C25.3672 24.8132 25.6169 24.3763 25.6777 23.8952C25.739 23.4144 25.6066 22.929 25.3099 22.5458C25.0132 22.1625 24.5763 21.9128 24.0954 21.8516C23.6146 21.7903 23.129 21.9227 22.746 22.2194C22.3627 22.5163 22.113 22.953 22.0518 23.4341C21.9905 23.9149 22.1229 24.4003 22.4196 24.7835C22.7165 25.1668 23.1532 25.4165 23.634 25.4777H23.634ZM22.8536 23.5359C22.8878 23.2676 23.027 23.0241 23.2408 22.8586C23.4546 22.693 23.7253 22.6192 23.9936 22.6534C24.2618 22.6876 24.5056 22.8268 24.6709 23.0406C24.8365 23.2544 24.9103 23.5252 24.8761 23.7934C24.8421 24.0615 24.7027 24.3052 24.4889 24.4707C24.275 24.6361 24.0043 24.7099 23.7363 24.6759C23.4682 24.6415 23.2247 24.5021 23.0594 24.2883C22.8938 24.0747 22.82 23.8041 22.8536 23.5359L22.8536 23.5359Z" fill="#F18121" stroke="#F18121" stroke-width="0.3"/>
<path d="M27.8632 26.7197C27.2995 26.648 26.7345 26.8424 26.3345 27.2459C25.9346 27.6494 25.7448 28.216 25.8213 28.7789C25.898 29.342 26.2321 29.8373 26.7255 30.1194C27.2187 30.4014 27.815 30.4379 28.3391 30.2181C28.863 29.9985 29.255 29.5476 29.3997 28.9981C29.5445 28.4487 29.4253 27.8631 29.0774 27.4138C28.7805 27.0307 28.3439 26.7812 27.8632 26.7198L27.8632 26.7197ZM28.6436 28.6614C28.6034 28.9756 28.4195 29.2536 28.1459 29.4131C27.8721 29.5727 27.5397 29.5958 27.2465 29.4758C26.9533 29.3558 26.7325 29.1063 26.6492 28.8005C26.5659 28.4948 26.6294 28.1678 26.8214 27.9156C27.0131 27.6634 27.3113 27.5147 27.6282 27.5133C27.9451 27.5121 28.2445 27.658 28.4385 27.9086C28.6039 28.1224 28.6777 28.3931 28.6437 28.6614L28.6436 28.6614Z" fill="#F18121" stroke="#F18121" stroke-width="0.3"/>
<path d="M25.749 34.412C30.3329 34.412 34.0624 30.6825 34.0624 26.0986C34.0624 21.5146 30.3329 17.7852 25.749 17.7852C21.165 17.7852 17.4355 21.5146 17.4355 26.0986C17.4355 30.6825 21.165 34.412 25.749 34.412ZM25.749 18.5933C27.7395 18.5933 29.6484 19.384 31.0559 20.7915C32.4633 22.1991 33.254 24.108 33.254 26.0983C33.254 28.0887 32.4633 29.9977 31.0559 31.4052C29.6482 32.8126 27.7394 33.6034 25.749 33.6034C23.7586 33.6034 21.8496 32.8127 20.4421 31.4052C19.0347 29.9976 18.2439 28.0887 18.2439 26.0983C18.2462 24.1084 19.0375 22.2008 20.4445 20.7936C21.8515 19.3864 23.7592 18.5952 25.7493 18.593L25.749 18.5933Z" fill="#F18121" stroke="#F18121" stroke-width="0.3"/>
</svg>
