<svg width="51" height="51" viewBox="0 0 51 51" fill="none" xmlns="http://www.w3.org/2000/svg">
<circle cx="25.8633" cy="25.5" r="25" fill="#B02A30"/>
<path d="M23.8345 12.8707C23.6944 12.8976 23.5836 13.0338 23.5861 13.1764V15.01C23.5861 15.1701 23.7317 15.3155 23.8918 15.3157H26.642V17.77C21.2186 17.9333 16.8633 22.3821 16.8633 27.8444C16.8633 33.4104 21.3818 37.9287 26.9475 37.9287C32.5132 37.9287 37.0318 33.4101 37.0318 27.8444C37.0318 25.1701 35.9922 22.7363 34.291 20.9306L35.8381 19.3835L37.1846 20.73C37.2976 20.8417 37.5014 20.8417 37.6144 20.73L38.7795 19.5649C38.8912 19.4519 38.8912 19.2481 38.7795 19.1351L35.6186 15.9742C35.499 15.896 35.3242 15.9173 35.227 16.022L34.0715 17.1775C33.954 17.2911 33.954 17.5032 34.0715 17.6168L35.4084 18.9441L33.8519 20.5006C32.1164 18.8678 29.8034 17.8461 27.253 17.7694V15.3151H30.0031C30.1632 15.3151 30.3086 15.1695 30.3088 15.0094V13.1758C30.3088 13.0157 30.1632 12.8703 30.0031 12.8701H23.8341L23.8345 12.8707ZM24.1973 13.4818H29.6978V14.7041H24.1973V13.4818ZM35.4466 16.6713L38.13 19.3452L37.3946 20.0806L34.7207 17.3971L35.4466 16.6713ZM26.9475 18.371C32.1829 18.371 36.4206 22.6086 36.4206 27.8441C36.4206 33.0795 32.183 37.3172 26.9475 37.3172C21.7122 37.3172 17.4744 33.0796 17.4744 27.8441C17.4744 22.6087 21.712 18.371 26.9475 18.371ZM23.8917 23.5659C23.7229 23.5659 23.586 23.7027 23.586 23.8715C23.586 24.0404 23.7229 24.1772 23.8917 24.1772H27.2532C27.9798 24.1772 28.9003 24.9723 29.058 26.0108H23.8917C23.7229 26.0108 23.586 26.1477 23.586 26.3165C23.586 26.4853 23.7229 26.6222 23.8917 26.6222H29.058C28.902 27.6626 27.9807 28.4558 27.2532 28.4558C26.1256 28.4487 24.9707 28.4701 23.8535 28.4464C23.622 28.469 23.504 28.8111 23.6721 28.9716L27.9502 33.2497C28.0627 33.3648 28.2782 33.3878 28.3895 33.2591C28.4948 33.1373 28.5023 32.9348 28.3895 32.8197L24.6367 29.0669H27.2532C28.4053 29.0669 29.5427 28.0035 29.6883 26.6222H31.2258C31.3946 26.6222 31.5315 26.4853 31.5315 26.3165C31.5315 26.1477 31.3946 26.0108 31.2258 26.0108H29.6787C29.5979 25.2716 29.2396 24.6198 28.743 24.1772H31.2258C31.3946 24.1772 31.5315 24.0404 31.5315 23.8716C31.5315 23.7027 31.3946 23.5659 31.2258 23.5659H23.8918L23.8917 23.5659Z" fill="#F18121" stroke="#F18121" stroke-width="0.3"/>
</svg>
