<svg width="51" height="51" viewBox="0 0 51 51" fill="none" xmlns="http://www.w3.org/2000/svg">
<circle cx="25.8633" cy="25.5" r="25" fill="#B02A30"/>
<path d="M26.272 29.4394H24.3013C24.1135 29.4394 23.9467 29.5587 23.8865 29.7357C23.8264 29.9129 23.8862 30.1086 24.0353 30.2225L28.2132 33.4102C28.2926 33.4708 28.3861 33.5 28.4792 33.5C28.6108 33.5 28.7409 33.4412 28.8271 33.3286C28.9743 33.1371 28.9376 32.8636 28.7455 32.7169L25.594 30.3123H26.272C27.4625 30.3123 28.452 29.4473 28.6478 28.3153H29.4253C29.6672 28.3153 29.8633 28.1201 29.8633 27.8786C29.8633 27.6375 29.6672 27.442 29.4253 27.442H28.6392C28.5604 27.0416 28.382 26.6762 28.1304 26.3733H29.4253C29.6672 26.3733 29.8632 26.1781 29.8632 25.9366C29.8632 25.6955 29.6672 25.5 29.4253 25.5H24.3012C24.0593 25.5 23.8633 25.6952 23.8633 25.9366C23.8633 26.1778 24.0593 26.3733 24.3012 26.3733H26.272C26.9564 26.3733 27.5311 26.8245 27.7297 27.442H26.0925C25.8506 27.442 25.6545 27.6372 25.6545 27.8786C25.6545 28.1198 25.8506 28.3153 26.0925 28.3153H27.7471C27.5663 28.9614 26.9769 29.4394 26.2721 29.4394L26.272 29.4394Z" fill="#F18121"/>
<rect x="16.3633" y="17" width="21" height="19" rx="3.5" stroke="#F18121"/>
<line x1="16.6484" y1="23" x2="37.8627" y2="23" stroke="#F18121"/>
<line x1="22.3633" y1="14.5" x2="22.3633" y2="18.5" stroke="#F18121"/>
<line x1="25.3633" y1="14.5" x2="25.3633" y2="18.5" stroke="#F18121"/>
<line x1="28.3633" y1="14.5" x2="28.3633" y2="18.5" stroke="#F18121"/>
<line x1="31.3633" y1="14.5" x2="31.3633" y2="18.5" stroke="#F18121"/>
</svg>
