<svg width="51" height="51" viewBox="0 0 51 51" fill="none" xmlns="http://www.w3.org/2000/svg">
<circle cx="25.8633" cy="25.5" r="25" fill="#B02A30"/>
<path d="M27.3636 11.5C26.5366 11.5 25.8636 12.173 25.8636 13V13.4999C25.8636 13.5538 25.872 13.6071 25.8887 13.658L26.17 14.5H24.9043C24.7155 14.5 24.5424 14.6062 24.4573 14.7753L23.5938 16.4999H22.3634V16.0001C22.3634 15.7238 22.1394 15.4998 21.8635 15.4998H15.3166C15.0404 15.4998 14.8164 15.7238 14.8164 16.0001C14.8164 16.276 15.0394 16.4999 15.3166 16.4999H17.3634V24.4999H15.3166C15.0404 24.4999 14.8164 24.7239 14.8164 25.0002C14.8164 25.2761 15.0394 25.5001 15.3166 25.5001H21.8635C22.1394 25.5001 22.3634 25.2761 22.3634 25.0002V24.4999H23.6957L24.5491 25.3537C24.6342 25.4384 24.7483 25.4853 24.8675 25.4944L19.7638 32.301C18.7349 33.6738 18.5711 35.4799 19.3379 37.014C20.105 38.5479 21.6485 39.5001 23.3635 39.5001H34.3634C36.0784 39.5001 37.6209 38.5479 38.389 37.014C39.1561 35.4799 38.992 33.6728 37.9631 32.301L32.6661 25.2382C33.0612 24.9684 33.3224 24.514 33.3224 24.0001C33.3224 23.614 33.1737 23.2661 32.9337 23C33.1737 22.7341 33.3224 22.3862 33.3224 22.0002C33.3224 21.6141 33.1737 21.2659 32.9337 21C33.1737 20.7342 33.3224 20.386 33.3224 19.9999C33.3224 19.6139 33.1737 19.266 32.9337 19.0001C33.1737 18.7339 33.3224 18.3861 33.3224 18C33.3224 17.2329 32.7431 16.6064 32.0001 16.5174L32.344 15.1406L32.8362 13.658C32.8529 13.6071 32.8633 13.5539 32.8633 13.5V13.0001C32.8633 12.1731 32.1903 11.5001 31.3633 11.5001C30.9773 11.5001 30.6294 11.6507 30.3635 11.8905C30.0973 11.6507 29.7494 11.5001 29.3634 11.5001C28.9773 11.5001 28.6295 11.6507 28.3633 11.8905C28.0974 11.6507 27.7497 11.5 27.3636 11.5ZM27.3636 12.4998C27.6395 12.4998 27.8635 12.7248 27.8635 13V13.4999C27.8635 13.7758 28.0875 13.9998 28.3634 13.9998C28.6397 13.9998 28.8637 13.7758 28.8637 13.4999V13C28.8637 12.7248 29.0877 12.4998 29.3636 12.4998C29.6394 12.4998 29.8634 12.7248 29.8634 13V13.4999C29.8634 13.7758 30.0874 13.9998 30.3637 13.9998C30.6396 13.9998 30.8636 13.7758 30.8636 13.4999V13C30.8636 12.7248 31.0876 12.4998 31.3635 12.4998C31.6397 12.4998 31.8637 12.7248 31.8637 13V13.4199L31.3889 14.8419C31.3869 14.8476 31.3889 14.8543 31.3869 14.8613C31.3849 14.8673 31.3802 14.8737 31.3792 14.8807L30.973 16.5H27.7524L27.3479 14.8788C27.3459 14.8717 27.3402 14.8664 27.3382 14.8593C27.3362 14.8533 27.3382 14.8466 27.3362 14.8419L26.8617 13.4199V13H26.8634C26.8634 12.7248 27.0874 12.4998 27.3636 12.4998ZM25.213 15.4998H26.473L26.8791 17.121C26.8831 17.1351 26.8918 17.1472 26.8969 17.1602C26.9046 17.184 26.9139 17.2064 26.926 17.2285C26.9431 17.2603 26.9635 17.2885 26.9866 17.3162C27.0017 17.3343 27.0164 17.3521 27.0335 17.3671C27.0425 17.3752 27.0479 17.3866 27.0569 17.3946L27.0606 17.3963C27.0817 17.4123 27.1061 17.4214 27.1292 17.4334C27.147 17.4435 27.1637 17.4559 27.1838 17.4629C27.2397 17.487 27.2987 17.5001 27.3616 17.5001H31.8205C32.0968 17.5001 32.3207 17.7251 32.3207 18C32.3207 18.2748 32.0984 18.4998 31.8225 18.4998H29.475C29.1988 18.4998 28.9748 18.7238 28.9748 19.0001C28.9748 19.276 29.1988 19.5 29.475 19.5H31.8225C32.0984 19.5 32.3224 19.725 32.3224 19.9999C32.3224 20.2751 32.0984 20.5001 31.8225 20.5001H29.475C29.1988 20.5001 28.9748 20.7241 28.9748 21C28.9748 21.2759 29.1988 21.4999 29.475 21.4999H31.8225C32.0984 21.4999 32.3224 21.7249 32.3224 22.0001C32.3224 22.275 32.0984 22.5 31.8225 22.5H29.475C29.1988 22.5 28.9748 22.724 28.9748 22.9999C28.9748 23.2761 29.1988 23.5001 29.475 23.5001H31.8225C32.0984 23.5001 32.3224 23.7251 32.3224 24C32.3224 24.2749 32.0984 24.4999 31.8225 24.4999H25.1116L24.2581 23.6464C24.2119 23.6006 24.155 23.5631 24.0941 23.5369C24.0318 23.5122 23.9695 23.5001 23.9046 23.5001H22.3634V17.5H23.9046C23.9916 17.5 24.07 17.4726 24.141 17.4334C24.1597 17.4234 24.1748 17.4103 24.1915 17.3982C24.2478 17.3574 24.2933 17.3078 24.3285 17.2479C24.3345 17.2379 24.3469 17.2355 24.3519 17.2245L25.213 15.4998ZM18.3635 16.5H21.3636V24.4999H18.3635V16.5ZM19.8635 22.5C19.5873 22.5 19.3633 22.724 19.3633 22.9999C19.3633 23.2762 19.5873 23.5002 19.8635 23.5002C20.1394 23.5002 20.3634 23.2762 20.3634 22.9999C20.3634 22.724 20.1394 22.5 19.8635 22.5ZM26.1134 25.5001H26.9183L26.4924 26.8497C26.4094 27.1136 26.5557 27.3935 26.8185 27.4765C26.8688 27.4926 26.92 27.5 26.9689 27.5C27.1812 27.5 27.3787 27.3634 27.4457 27.1504L27.967 25.5001H28.3634V27.0001C28.3634 27.276 28.5874 27.5 28.8636 27.5C29.1396 27.5 29.3635 27.276 29.3635 27.0001V25.5001H29.76L30.2816 27.1504C30.3647 27.4136 30.6466 27.5596 30.9084 27.4765C31.1716 27.3935 31.3176 27.1136 31.2345 26.8497L30.807 25.5001H31.6116L37.1627 32.8987C37.9756 33.9826 38.0985 35.3537 37.4925 36.5647C36.8864 37.7758 35.7186 38.5004 34.3635 38.5004H23.3637C22.0096 38.5004 20.8377 37.7768 20.2327 36.5647C19.6267 35.3537 19.7509 33.9826 20.5629 32.8987L26.1134 25.5001ZM26.8634 29.4728C26.5875 29.4728 26.3635 29.6968 26.3635 29.9727C26.3635 30.2489 26.5875 30.4729 26.8634 30.4729H27.8635C28.5205 30.4729 29.0726 30.8995 29.2755 31.4885H26.8634C26.5875 31.4885 26.3635 31.7125 26.3635 31.9884C26.3635 32.2646 26.5875 32.4886 26.8634 32.4886H29.2658C29.0548 33.0615 28.5084 33.473 27.8635 33.473H26.8634C26.5875 33.473 26.3635 33.697 26.3635 33.9729C26.3635 33.9759 26.3645 33.9775 26.3655 33.9806C26.3635 34.1118 26.4101 34.2431 26.5098 34.3422L29.5099 37.3422C29.608 37.44 29.7355 37.4885 29.8635 37.4885C29.9917 37.4885 30.1189 37.439 30.217 37.3422C30.4122 37.147 30.4122 36.8299 30.217 36.6351L28.0373 34.4553C29.1593 34.3763 30.0827 33.5643 30.3087 32.4886H30.8636C31.1395 32.4886 31.3635 32.2646 31.3635 31.9883C31.3635 31.7124 31.1394 31.4885 30.8636 31.4885H30.3148C30.2398 31.1104 30.0757 30.7689 29.8517 30.4729H30.8636C31.1395 30.4729 31.3635 30.2489 31.3635 29.9727C31.3635 29.6968 31.1395 29.4728 30.8636 29.4728L26.8634 29.4728Z" fill="#F18121"/>
</svg>
